<svg xmlns="http://www.w3.org/2000/svg" xmlns:xlink="http://www.w3.org/1999/xlink" fill="none" version="1.1" width="38" height="38" viewBox="0 0 38 38"><defs><clipPath id="master_svg0_241_2360"><rect x="0" y="0" width="38" height="38" rx="0"/></clipPath></defs><g clip-path="url(#master_svg0_241_2360)"><g></g><g><g><g><g><path d="M20.4933860748291,0.6346206665039062L16.925186074829103,0.6346206665039062L15.131586074829102,3.7392206665039063L16.925186074829103,6.8666206665039065L20.4933860748291,6.8666206665039065L22.2869860748291,3.7392206665039063L20.4933860748291,0.6346206665039062Z" fill-rule="evenodd" fill="#F58C00" fill-opacity="1"/></g></g><g><g><path d="M29.210545010375977,4.001410687255859L26.121145010375976,2.1736106872558594L23.050745010375977,3.9406106872558593L23.081144510375978,7.569610687255859L26.170545010375978,9.39741068725586L29.252345010375976,7.6076106872558595L29.210545010375977,4.001410687255859Z" fill-rule="evenodd" fill="#F58C00" fill-opacity="1"/></g></g><g><g><path d="M35.11584247131348,11.380989978027344L33.333642471313475,8.215590178027345L29.814842471313476,8.173789978027344L28.070642471313477,11.331589978027344L29.852842471313476,14.496989978027344L33.394442471313475,14.527389978027344L35.11584247131348,11.380989978027344Z" fill-rule="evenodd" fill="#F58C00" fill-opacity="1"/></g></g><g><g><path d="M36.6282120513916,20.797397045898435L36.6282120513916,17.141797045898436L33.5996120513916,15.302597045898438L30.5482120513916,17.141797045898436L30.5482120513916,20.797397045898435L33.5996120513916,22.636597045898437L36.6282120513916,20.797397045898435Z" fill-rule="evenodd" fill="#F58C00" fill-opacity="1"/></g></g><g><g><path d="M33.34879501037598,29.731199261474607L35.130995010375976,26.56579926147461L33.405795010375975,23.41939926147461L29.864195010375976,23.44979876147461L28.081995010375977,26.61139926147461L29.826195010375976,29.76919926147461L33.34879501037598,29.731199261474607Z" fill-rule="evenodd" fill="#F58C00" fill-opacity="1"/></g></g><g><g><path d="M26.1477868560791,35.7807953918457L29.237186856079102,33.952995391845704L29.2789868560791,30.346795391845703L26.197186856079103,28.556995391845703L23.107786356079103,30.384795391845703L23.0773868560791,34.013795391845704L26.1477868560791,35.7807953918457Z" fill-rule="evenodd" fill="#F58C00" fill-opacity="1"/></g></g><g><g><path d="M16.959412100219726,37.33501208496094L20.527612100219727,37.33501208496094L22.321212100219725,34.23041208496094L20.527612100219727,31.103012084960938L16.959412100219726,31.103012084960938L15.162012100219727,34.23041208496094L16.959412100219726,37.33501208496094Z" fill-rule="evenodd" fill="#F58C00" fill-opacity="1"/></g></g><g><g><path d="M8.242217910766602,33.971984954833985L11.331617910766601,35.79978495483398L14.402017910766602,34.032784954833986L14.371617910766602,30.403784954833984L11.282217910766601,28.575984954833984L8.204217910766602,30.361984954833986L8.242217910766602,33.971984954833985Z" fill-rule="evenodd" fill="#F58C00" fill-opacity="1"/></g></g><g><g><path d="M2.336946487426758,26.588625848388673L4.119146487426757,29.75402584838867L7.637946487426758,29.795825848388674L9.382146487426759,26.64182584838867L7.599946487426758,23.476425348388673L4.058346487426758,23.446025848388672L2.336946487426758,26.588625848388673Z" fill-rule="evenodd" fill="#F58C00" fill-opacity="1"/></g></g><g><g><path d="M0.8207950592041016,17.172230700683592L0.8207950592041016,20.82783070068359L3.8493950592041015,22.667030700683593L6.900795059204102,20.82783070068359L6.900795059204102,17.172230700683592L3.8493950592041015,15.333030700683594L0.8207950592041016,17.172230700683592Z" fill-rule="evenodd" fill="#F58C00" fill-opacity="1"/></g></g><g><g><path d="M4.103971621704101,8.242215664941407L2.3217716217041016,11.407616564941407L4.046971621704102,14.554016564941406L7.5885716217041015,14.523616564941406L9.370771621704101,11.358216564941406L7.626571621704102,8.200416564941406L4.103971621704101,8.242215664941407Z" fill-rule="evenodd" fill="#F58C00" fill-opacity="1"/></g></g><g><g><path d="M11.304976626586914,2.1887969970703125L8.215576826586915,4.016596997070312L8.173776626586914,7.622796997070313L11.255576626586913,9.412596997070313L14.344976626586913,7.584796997070312L14.375376626586913,3.9557969970703124L11.304976626586914,2.1887969970703125Z" fill-rule="evenodd" fill="#F58C00" fill-opacity="1"/></g></g></g></g><g><path d="M22.362957421875,17.981596240234374C22.522557421875,16.906196240234376,21.705557421875,16.328596240234376,20.584557421875,15.940996240234375L20.949357421875,14.481795240234375L20.063957421875,14.261396240234376L19.710557421875002,15.678796240234375C19.478757421875,15.621796240234374,19.239357421875,15.564796240234376,18.999957421875,15.511596240234375L19.357157421875,14.082795240234375L18.471757421875,13.862396240234375L18.106957421875,15.317796240234376C17.913157421875,15.272196240234376,17.723157421875,15.230396240234375,17.540757421875,15.184796240234375L17.540757421875,15.180996240234375L16.317157421875,14.876996240234375L16.081557421875,15.823196240234376Q16.738957421875,15.975196240234375,16.727557421874998,15.982796240234375C17.088557421875,16.073996240234376,17.153157421875,16.309596240234374,17.141757421875,16.499596240234375L16.719957421875,18.163996240234376C16.746557421875,18.171596240234376,16.776957421875,18.179196240234376,16.811157421875,18.194396240234376C16.780757421875002,18.186796240234376,16.750357421875,18.179196240234376,16.716157421875,18.171596240234376L16.134757421875,20.497196240234373C16.089157421875,20.607396240234376,15.978957421875,20.770796240234375,15.728157421875,20.706196240234377Q15.735757421875,20.717596240234375,15.082157421875,20.546596240234376L14.641357421875,21.561196240234374L15.796557421875,21.849996240234375C16.013157421875,21.903196240234376,16.222157421875,21.960196240234374,16.427357421875,22.013396240234375L16.058757421875,23.487786240234374L16.944157421875,23.708196240234376L17.308957421875,22.248986240234373C17.552157421875002,22.313586240234375,17.787757421875,22.374386240234376,18.015757421875,22.431386240234374L17.654757421875,23.882996240234377L18.540157421875,24.103396240234375L18.908757421875002,22.632786240234374C20.421157421875,22.917786240234374,21.557357421875,22.803786240234373,22.036157421875,21.435786240234375C22.423757421875,20.333786240234375,22.017157421874998,19.699186240234376,21.219157421875,19.284986240234375C21.808157421875002,19.151996240234375,22.245157421875,18.768196240234374,22.362957421875,17.981596240234374ZM20.337557421875,20.823996240234376C20.063957421875,21.925996240234376,18.209557421875,21.329396240234374,17.605357421875,21.181196240234375L18.091757421875002,19.227996240234376C18.692157421875,19.379996240234377,20.622557421875,19.676396240234375,20.337557421875,20.823996240234376ZM20.611157421875,17.966396240234374C20.360357421875,18.969596240234374,18.817557421875,18.460396240234374,18.315957421874998,18.334996240234375L18.756757421875,16.564196240234374C19.258357421875,16.689596240234376,20.869557421875,16.921396240234376,20.611157421875,17.966396240234374Z" fill="#F58C00" fill-opacity="1"/></g></g></svg>