<svg xmlns="http://www.w3.org/2000/svg" xmlns:xlink="http://www.w3.org/1999/xlink" fill="none" version="1.1" width="178" height="40" viewBox="0 0 178 40"><defs><clipPath id="master_svg0_210_6394"><rect x="0" y="0" width="178" height="40" rx="0"/></clipPath></defs><g clip-path="url(#master_svg0_210_6394)"><g><g><g><g><g><g><path d="M35.0968,4.903230000000001L4.903230000000001,4.903230000000001L4.903230000000001,35.0968L35.0968,35.0968L35.0968,4.903230000000001ZM2,2L2,38L38,38L38,2L2,2Z" fill-rule="evenodd" fill="#000000" fill-opacity="1"/></g><g><g><path d="M2,11.290499687194824L28.7097,11.290499687194824L28.7097,38.00019968719482L2,38.00019968719482L2,11.290499687194824Z" fill="#FFAF0F" fill-opacity="1"/></g><g><path d="M25.8065,14.193699687194824L4.903230000000001,14.193699687194824L4.903230000000001,35.09689968719482L25.8065,35.09689968719482L25.8065,14.193699687194824ZM2,11.290499687194824L2,38.00019968719482L28.7097,38.00019968719482L28.7097,11.290499687194824L2,11.290499687194824Z" fill-rule="evenodd" fill="#000000" fill-opacity="1"/></g><g><path d="M2,2L14.1935,2L14.1935,14.1935L2,14.1935L2,2Z" fill="#FFAF0F" fill-opacity="1"/></g><g><path d="M11.2903,4.903230000000001L4.903230000000001,4.903230000000001L4.903230000000001,11.2903L11.2903,11.2903L11.2903,4.903230000000001ZM2,2L2,14.1935L14.1935,14.1935L14.1935,2L2,2Z" fill-rule="evenodd" fill="#000000" fill-opacity="1"/></g></g></g></g></g><g><g><path d="M164.00399780273438,28.128700468444823L164.00399780273438,11.173800468444824L167.2089978027344,11.173800468444824L167.2089978027344,17.468000468444824L167.25599780273438,17.468000468444824C167.75100780273436,16.910600468444823,168.30799780273438,16.500300468444824,168.92799780273438,16.237100468444822C169.56300780273438,15.958300468444826,170.2980078027344,15.819000468444823,171.13399780273437,15.819000468444823C172.62099780273437,15.819000468444823,173.70499780273437,16.213800468444823,174.38599780273438,17.003500468444823C175.06699780273436,17.777700468444824,175.3999978027344,19.008700468444825,175.38499780273438,20.696400468444825L175.38499780273438,28.128700468444823L172.20300780273436,28.128700468444823L172.20300780273436,21.323500468444823C172.21799780273437,20.317100468444824,172.0480078027344,19.589300468444826,171.69199780273436,19.140300468444824C171.35099780273438,18.675800468444823,170.80900780273438,18.443500468444824,170.0659978027344,18.443500468444824C169.50799780273437,18.443500468444824,169.0129978027344,18.559600468444824,168.57899780273436,18.791900468444823C168.16099780273439,19.008700468444825,167.82800780273436,19.310600468444825,167.58099780273437,19.697700468444822C167.33298780273438,20.084800468444826,167.2089978027344,20.526100468444824,167.2089978027344,21.021600468444824L167.2089978027344,28.128700468444823L164.00399780273438,28.128700468444823Z" fill="#D5D5D5" fill-opacity="1"/></g><g><path d="M157.75799524902345,28.361000379943846C156.34899524902343,28.361000379943846,155.14100524902344,28.113300379943848,154.13499524902343,27.617800379943848C153.12800524902343,27.122300379943848,152.36199524902344,26.41010037994385,151.83599824902345,25.481000379943847C151.30900524902344,24.536500379943845,151.04600524902344,23.406200379943847,151.04600524902344,22.09010037994385C151.04600524902344,20.758400379943847,151.30900524902344,19.62810037994385,151.83599824902345,18.699100379943847C152.36199524902344,17.770100379943848,153.12800524902343,17.05780037994385,154.13499524902343,16.56229937994385C155.14100524902344,16.06679937994385,156.34899524902343,15.819100379943848,157.75799524902345,15.819100379943848C158.47000524902344,15.819100379943848,159.13600524902344,15.888799679943848,159.75599524902344,16.028099379943846C160.37499524902344,16.16749937994385,160.97900524902343,16.39200037994385,161.56700524902345,16.701700379943848L161.05600524902343,19.14040037994385C160.51400524902343,18.84620037994385,159.98800524902344,18.63720037994385,159.47700524902345,18.513300379943846C158.98100524902344,18.373900379943848,158.48599524902343,18.304300379943847,157.99000524902343,18.304300379943847C156.81399524902344,18.304300379943847,155.89999524902345,18.629400379943846,155.24999524902344,19.279700379943847C154.61500524902343,19.93010037994385,154.29800524902345,20.866800379943847,154.29800524902345,22.09010037994385C154.29800524902345,23.297800379943848,154.61500524902343,24.23460037994385,155.24999524902344,24.900400379943846C155.89999524902345,25.550700379943848,156.81399524902344,25.87590037994385,157.99000524902343,25.87590037994385C158.48599524902343,25.87590037994385,158.98100524902344,25.813900379943846,159.47700524902345,25.69010037994385C159.98800524902344,25.550700379943848,160.51400524902343,25.33390037994385,161.05600524902343,25.039700379943845L161.56700524902345,27.47840037994385C160.97900524902343,27.78810037994385,160.37499524902344,28.012600379943848,159.75599524902344,28.15200037994385C159.13600524902344,28.29140037994385,158.47000524902344,28.361000379943846,157.75799524902345,28.361000379943846Z" fill="#D5D5D5" fill-opacity="1"/></g><g><path d="M144.86300572753908,28.361000379943846C142.69599572753907,28.361000379943846,141.02299572753907,27.819100379943848,139.84699572753905,26.735200379943848C138.68499772753907,25.651300379943848,138.10499572753906,24.103000379943847,138.10499572753906,22.09010037994385C138.10499572753906,20.139100379943848,138.63900772753905,18.606200379943846,139.70700572753907,17.491300379943848C140.77600572753906,16.376499379943848,142.24699572753906,15.819100379943848,144.11999572753905,15.819100379943848C145.93200572753906,15.819100379943848,147.32499572753906,16.345501379943848,148.30099572753906,17.398400379943848C149.29199572753907,18.45140037994385,149.78699572753905,19.945500379943848,149.78699572753905,21.88100037994385C149.78699572753905,22.09780037994385,149.77999572753907,22.345500379943847,149.76399572753905,22.624300379943847C149.76399572753905,22.903000379943848,149.75599572753907,23.112000379943847,149.74099572753906,23.251400379943846L139.89300572753908,23.251400379943846L139.89300572753908,21.044900379943847L147.25599572753907,21.044900379943847L146.81399572753907,21.718400379943848C146.81399572753907,20.51070037994385,146.58999572753908,19.61260037994385,146.14100572753907,19.02430037994385C145.70700572753907,18.43590037994385,145.03399572753906,18.14170037994385,144.11999572753905,18.14170037994385C143.16000572753907,18.14170037994385,142.44000572753907,18.45140037994385,141.96000572753906,19.070700379943847C141.47999572753906,19.674600379943847,141.24000572753906,20.580400379943846,141.24000572753906,21.78810037994385L141.24000572753906,22.717200379943847C141.24000572753906,23.801000379943847,141.52699572753906,24.598400379943847,142.10000572753907,25.10940037994385C142.67199572753907,25.620400379943845,143.54699572753907,25.87590037994385,144.72399572753906,25.87590037994385C145.38999572753906,25.87590037994385,146.09399572753907,25.813900379943846,146.83799572753907,25.69010037994385C147.58099572753906,25.566200379943847,148.23899572753908,25.395900379943846,148.81199572753906,25.179100379943847L149.18299572753907,27.617800379943848C148.61099572753906,27.850100379943846,147.93699572753906,28.028100379943847,147.16299572753906,28.15200037994385C146.40400572753907,28.29140037994385,145.63799572753905,28.361000379943846,144.86300572753908,28.361000379943846Z" fill="#D5D5D5" fill-opacity="1"/></g><g><path d="M131.685,28.128700468444823L131.685,14.030600468444824L126.25,14.030600468444824L126.25,11.173800468444824L140.487,11.173800468444824L140.487,14.030600468444824L135.052,14.030600468444824L135.052,28.128700468444823L131.685,28.128700468444823Z" fill="#D5D5D5" fill-opacity="1"/></g><g><path d="M117.32099713134765,15.819100379943848C118.91499713134766,15.819100379943848,120.15399713134765,16.368799379943848,121.03699713134766,17.46810037994385C121.91899713134765,18.567500379943848,122.36099713134766,20.10810037994385,122.36099713134766,22.09010037994385C122.36099713134766,24.072000379943848,121.91899713134765,25.61260037994385,121.03699713134766,26.712000379943845C120.15399713134765,27.811400379943848,118.91499713134766,28.361000379943846,117.32099713134765,28.361000379943846C116.54599713134766,28.361000379943846,115.83399713134766,28.221700379943847,115.18399713134765,27.943000379943847C114.54900713134765,27.664300379943846,113.99899713134765,27.253900379943847,113.53500713134765,26.712000379943845L113.48799713134765,26.712000379943845L113.48799713134765,33.00620037994385L110.28299713134766,33.00620037994385L110.28299713134766,16.051300379943847L113.32599713134766,16.051300379943847L113.34899713134766,17.46810037994385L113.39499713134765,17.46810037994385C113.89099713134766,16.910700379943847,114.47199713134765,16.500400379943848,115.13699713134766,16.23719937994385C115.80299713134765,15.958399379943847,116.53099713134766,15.819100379943848,117.32099713134765,15.819100379943848ZM116.36799713134765,18.373900379943848C115.82599713134766,18.373900379943848,115.33099713134766,18.490100379943847,114.88200713134765,18.722300379943846C114.44799713134766,18.954600379943848,114.10799713134766,19.272000379943847,113.85999713134765,19.674600379943847C113.61199713134765,20.061700379943847,113.48799713134765,20.51070037994385,113.48799713134765,21.021700379943848L113.48799713134765,23.15840037994385C113.48799713134765,23.66940037994385,113.61199713134765,24.126200379943846,113.85999713134765,24.528800379943846C114.10799713134766,24.91590037994385,114.44799713134766,25.225500379943846,114.88200713134765,25.457800379943848C115.33099713134766,25.69010037994385,115.82599713134766,25.806200379943846,116.36799713134765,25.806200379943846C117.29699713134765,25.806200379943846,118.01000713134766,25.488800379943847,118.50499713134765,24.85390037994385C119.00099713134766,24.203600379943847,119.24799713134766,23.282300379943848,119.24799713134766,22.09010037994385C119.24799713134766,20.89780037994385,119.00099713134766,19.984300379943846,118.50499713134765,19.349400379943848C118.01000713134766,18.699100379943847,117.29699713134765,18.373900379943848,116.36799713134765,18.373900379943848Z" fill="#FFAF0F" fill-opacity="1"/></g><g><path d="M100.6309917944336,28.361000379943846C99.4391017944336,28.361000379943846,98.49460179443359,28.028100379943847,97.7978017944336,27.362300379943846C97.11650079443359,26.69650037994385,96.7759017944336,25.806200379943846,96.7759017944336,24.691300379943847C96.7759017944336,23.297800379943848,97.31780279443359,22.221700379943847,98.40170179443359,21.46300037994385C99.50100179443359,20.70430037994385,101.05700179443359,20.32490037994385,103.0700017944336,20.32490037994385L104.6729917944336,20.32490037994385C104.6729917944336,19.783000379943847,104.6030017944336,19.364900379943847,104.4640017944336,19.070700379943847C104.33999179443359,18.776500379943847,104.1150017944336,18.575200379943848,103.79000179443359,18.466800379943848C103.48000179443359,18.34300037994385,103.03100179443359,18.281000379943848,102.4430017944336,18.281000379943848C101.6690017944336,18.281000379943848,100.86400179443359,18.366200379943848,100.02700179443359,18.53650037994385C99.19140179443359,18.691300379943847,98.40170179443359,18.91590037994385,97.65850079443359,19.210100379943846L97.2636027944336,16.748100379943846C98.0688017944336,16.45389937994385,98.9591017944336,16.229400379943847,99.93460179443359,16.07460037994385C100.92600179443359,15.904299779943848,101.90899179443359,15.819100379943848,102.8840017944336,15.819100379943848C104.12300179443359,15.819100379943848,105.0980017944336,15.966199379943848,105.8110017944336,16.260400379943846C106.5230017944336,16.55459937994385,107.04200179443359,17.05010037994385,107.36700179443359,17.74680037994385C107.6920017944336,18.42810037994385,107.85500179443359,19.349400379943848,107.85500179443359,20.51070037994385L107.85500179443359,28.128800379943847L104.8119917944336,28.128800379943847L104.76600179443359,26.735200379943848L104.74199179443359,26.735200379943848C104.3090017944336,27.230700379943848,103.7130017944336,27.625500379943848,102.9540017944336,27.919700379943848C102.1950017944336,28.213900379943848,101.4210017944336,28.361000379943846,100.6309917944336,28.361000379943846ZM101.7930017944336,25.945500379943848C102.3350017944336,25.945500379943848,102.82200179443359,25.852600379943848,103.2559917944336,25.666800379943847C103.6890017944336,25.481000379943847,104.03000179443359,25.225500379943846,104.27800179443359,24.900400379943846C104.5410017944336,24.55970037994385,104.6729917944336,24.188100379943847,104.6729917944336,23.785500379943848L104.6729917944336,22.415200379943848L103.5350017944336,22.415200379943848C102.28000179443359,22.415200379943848,101.3440017944336,22.57780037994385,100.72400179443359,22.903000379943848C100.10500179443359,23.212600379943847,99.79519179443359,23.700400379943847,99.79519179443359,24.366200379943848C99.79519179443359,24.861700379943848,99.9656017944336,25.248800379943848,100.3060017944336,25.527500379943845C100.66200179443359,25.806200379943846,101.15800179443359,25.945500379943848,101.7930017944336,25.945500379943848Z" fill="#FFAF0F" fill-opacity="1"/></g><g><path d="M78.0282974243164,28.128800379943847L78.0282974243164,16.051300379943847L81.0011974243164,16.051300379943847L81.04769742431641,17.46810037994385L81.0940974243164,17.46810037994385C81.5431974243164,16.926200379943847,82.05409742431641,16.515899379943846,82.6269974243164,16.23719937994385C83.21539742431641,15.958399379943847,83.9044074243164,15.819100379943848,84.69409742431641,15.819100379943848C85.4682974243164,15.819100379943848,86.12640742431641,15.958399379943847,86.6682974243164,16.23719937994385C87.21029742431641,16.515899379943846,87.59739742431641,16.926200379943847,87.8295974243164,17.46810037994385L87.87609742431641,17.46810037994385C88.3560974243164,16.895200379943848,88.8979974243164,16.477199379943848,89.50189742431641,16.213899379943847C90.1056974243164,15.950699379943847,90.8102974243164,15.819100379943848,91.6153974243164,15.819100379943848C92.9005974243164,15.819100379943848,93.8295974243164,16.159700379943846,94.40249742431641,16.841000379943846C94.9908974243164,17.522300379943847,95.2850974243164,18.598400379943847,95.2850974243164,20.069400379943847L95.2850974243164,28.128800379943847L92.1727974243164,28.128800379943847L92.1727974243164,20.859100379943847C92.1727974243164,20.02300037994385,92.04119742431641,19.41140037994385,91.77799742431641,19.02430037994385C91.51479742431641,18.63720037994385,91.0889974243164,18.44360037994385,90.50059742431641,18.44360037994385C89.8037974243164,18.44360037994385,89.2540974243164,18.683600379943847,88.8514974243164,19.163600379943848C88.4489974243164,19.62810037994385,88.24769742431641,20.247500379943848,88.24769742431641,21.021700379943848L88.24769742431641,28.128800379943847L85.1121974243164,28.128800379943847L85.1121974243164,20.69650037994385C85.1121974243164,19.953300379943848,84.9651074243164,19.395900379943846,84.67089742431641,19.02430037994385C84.39219742431641,18.63720037994385,83.97409742431641,18.44360037994385,83.41669742431641,18.44360037994385C82.9985974243164,18.44360037994385,82.6192974243164,18.55970037994385,82.2786074243164,18.792000379943847C81.93800742431641,19.00880037994385,81.6669974243164,19.310700379943846,81.4656974243164,19.697800379943846C81.2643974243164,20.084900379943846,81.1638074243164,20.526200379943848,81.1638074243164,21.021700379943848L81.1638074243164,28.128800379943847L78.0282974243164,28.128800379943847Z" fill="#FFAF0F" fill-opacity="1"/></g><g><path d="M72.74769940185547,28.36080023345947C71.29219940185547,28.36080023345947,70.23929940185548,28.066600233459475,69.58899940185547,27.478200233459475C68.95409940185547,26.889800233459475,68.63669940185547,25.92200023345947,68.63669940185547,24.575000233459473L68.63669940185547,18.536200233459475L66.01219940185547,18.536200233459475L66.01219940185547,16.051100233459472L68.63669940185547,16.051100233459472L68.63669940185547,12.102700233459473L71.84189940185547,12.102700233459473L71.84189940185547,16.051100233459472L75.76699940185547,16.051100233459472L75.76699940185547,18.536200233459475L71.84189940185547,18.536200233459475L71.84189940185547,23.785300233459473C71.84189940185547,24.513000233459472,71.95799940185547,25.024000233459475,72.19029940185547,25.31820023345947C72.42249940185548,25.596900233459472,72.84059940185547,25.73620023345947,73.44449940185547,25.73620023345947C73.76959940185547,25.73620023345947,74.11029940185547,25.705300233459475,74.46639940185547,25.64330023345947C74.83799940185547,25.581400233459473,75.17869940185547,25.496200233459472,75.48829940185547,25.387900233459472L75.74379940185547,27.919500233459473C75.21739940185547,28.074300233459475,74.71409940185546,28.18270023345947,74.23409940185547,28.244600233459472C73.75409940185547,28.322000233459473,73.25869940185547,28.36080023345947,72.74769940185547,28.36080023345947Z" fill="#FFAF0F" fill-opacity="1"/></g><g><path d="M61.06639862060547,14.123500468444824L61.06639862060547,11.173800468444824L64.31799862060547,11.173800468444824L64.31799862060547,14.123500468444824L61.06639862060547,14.123500468444824ZM61.06639862060547,28.128700468444823L61.06639862060547,16.213800468444823L64.31799862060547,16.213800468444823L64.31799862060547,28.128700468444823L61.06639862060547,28.128700468444823Z" fill="#FFAF0F" fill-opacity="1"/></g><g><path d="M46.017601013183594,28.128700468444823L46.017601013183594,11.173800468444824L51.49890101318359,11.173800468444824C53.77500101318359,11.173800468444824,55.47820101318359,11.522199468444825,56.60850101318359,12.219000468444824C57.754401013183596,12.900300468444824,58.32730101318359,13.930000468444824,58.32730101318359,15.308000468444824C58.32730101318359,16.330000468444823,58.0331010131836,17.173800468444824,57.44470101318359,17.839600468444825C56.87180101318359,18.490000468444826,56.06660101318359,18.915800468444825,55.029201013183595,19.117100468444825L55.029201013183595,19.163500468444823C56.31440101318359,19.349300468444824,57.28210101318359,19.798300468444822,57.93240101318359,20.510600468444824C58.5982010131836,21.207400468444824,58.93110101318359,22.144200468444822,58.93110101318359,23.320900468444826C58.93110101318359,24.915800468444825,58.3195010131836,26.115800468444824,57.09630101318359,26.920900468444824C55.88850101318359,27.726100468444823,54.076901013183594,28.128700468444823,51.66140101318359,28.128700468444823L46.017601013183594,28.128700468444823ZM51.66140101318359,25.411200468444825C53.02400101318359,25.411200468444825,54.02270101318359,25.217700468444825,54.657601013183594,24.830600468444825C55.29240101318359,24.443500468444824,55.60980101318359,23.839600468444825,55.60980101318359,23.019000468444823C55.60980101318359,22.182900468444824,55.29240101318359,21.579000468444825,54.657601013183594,21.207400468444824C54.02270101318359,20.820300468444824,53.02400101318359,20.626700468444824,51.66140101318359,20.626700468444824L47.64340101318359,20.626700468444824L47.64340101318359,17.979000468444823L51.66140101318359,17.979000468444823C52.853701013183596,17.979000468444823,53.720801013183596,17.816400468444826,54.262701013183595,17.491200468444823C54.804701013183596,17.150600468444825,55.075601013183594,16.616400468444823,55.075601013183594,15.888700468444824C55.075601013183594,15.176400468444825,54.804701013183596,14.665400468444824,54.262701013183595,14.355800468444825C53.73630101318359,14.046100468444823,52.86920101318359,13.891200468444824,51.66140101318359,13.891200468444824L49.26920101318359,13.891200468444824L49.26920101318359,25.411200468444825L51.66140101318359,25.411200468444825Z" fill="#FFAF0F" fill-opacity="1"/></g></g></g></g></g></svg>