<svg xmlns="http://www.w3.org/2000/svg" xmlns:xlink="http://www.w3.org/1999/xlink" fill="none" version="1.1" width="32" height="32" viewBox="0 0 32 32"><defs><radialGradient cx="0" cy="0" r="1" gradientUnits="userSpaceOnUse" id="master_svg0_889_9038" gradientTransform="translate(15.999998092651367 15.99999713897705) rotate(156.03751489820974) scale(15.758171592029008 15.579997685325921)"><stop offset="92.17365384101868%" stop-color="#F58C00" stop-opacity="0"/><stop offset="94.41147446632385%" stop-color="#F58C00" stop-opacity="1"/><stop offset="98.95833134651184%" stop-color="#F58C00" stop-opacity="1"/></radialGradient></defs><g><path d="M16,0C24.8366,0,32,7.16345,32,16C32,24.8366,24.8366,32,16,32C7.16345,32,0,24.8366,0,16C0,7.16345,7.16345,0,16,0C16,0,16,0,16,0ZM16,5.33333C10.109,5.33333,5.33333,10.109,5.33333,16C5.33333,21.891,10.109,26.6667,16,26.6667C21.891,26.6667,26.6667,21.891,26.6667,16C26.6667,10.109,21.891,5.33333,16,5.33333C16,5.33333,16,5.33333,16,5.33333Z" fill-rule="evenodd" fill="url(#master_svg0_889_9038)" fill-opacity="1"/></g></svg>